<svg width="36" height="36" viewBox="0 0 36 36" fill="none" xmlns="http://www.w3.org/2000/svg">
<g clip-path="url(#clip0_45_181)">
<path d="M28.5 13.0649L20.5005 6.8429C19.7985 6.29676 18.9344 6.00024 18.045 6.00024C17.1555 6.00024 16.2915 6.29676 15.5895 6.8429L7.58848 13.0649C7.10765 13.4388 6.71862 13.9177 6.45112 14.4649C6.18361 15.0122 6.0447 15.6133 6.04498 16.2224V27.0224C6.04498 27.818 6.36105 28.5811 6.92366 29.1437C7.48627 29.7063 8.24933 30.0224 9.04498 30.0224H27.045C27.8406 30.0224 28.6037 29.7063 29.1663 29.1437C29.7289 28.5811 30.045 27.818 30.045 27.0224V16.2224C30.045 14.9879 29.475 13.8224 28.5 13.0649Z" fill="#32B768"/>
<path d="M24 22.5C20.685 24.4995 15.312 24.4995 12 22.5" stroke="white" stroke-width="2.5" stroke-linecap="round" stroke-linejoin="round"/>
</g>
<defs>
<clipPath id="clip0_45_181">
<rect width="36" height="36" fill="white"/>
</clipPath>
</defs>
</svg>
