<svg width="22" height="28" viewBox="0 0 22 28" fill="none" xmlns="http://www.w3.org/2000/svg">
<path d="M16.3334 7.33333C16.3334 8.74782 15.7715 10.1044 14.7713 11.1046C13.7711 12.1048 12.4145 12.6667 11 12.6667C9.58553 12.6667 8.22898 12.1048 7.22878 11.1046C6.22859 10.1044 5.66669 8.74782 5.66669 7.33333C5.66669 5.91885 6.22859 4.56229 7.22878 3.5621C8.22898 2.5619 9.58553 2 11 2C12.4145 2 13.7711 2.5619 14.7713 3.5621C15.7715 4.56229 16.3334 5.91885 16.3334 7.33333V7.33333ZM11 16.6667C8.52467 16.6667 6.1507 17.65 4.40036 19.4003C2.65002 21.1507 1.66669 23.5246 1.66669 26H20.3334C20.3334 23.5246 19.35 21.1507 17.5997 19.4003C15.8493 17.65 13.4754 16.6667 11 16.6667V16.6667Z" stroke="#4B5563" stroke-width="2.5" stroke-linecap="round" stroke-linejoin="round"/>
</svg>
